<svg width="65" height="65" viewBox="0 0 65 65" fill="none" xmlns="http://www.w3.org/2000/svg">
<rect width="65" height="65" rx="8.58491" fill="#1B1F28"/>
<path d="M32.7106 31.8848V23.7907H28.4273C28.5302 23.7182 28.6364 23.6458 28.7425 23.5783C30.2239 22.6217 31.9475 22.1178 33.7259 22.1178C38.7773 22.1178 42.8881 26.1978 42.8881 31.2114V31.7877H51.5111V31.2114C51.5111 28.8306 51.0399 26.5189 50.1109 24.339C49.2151 22.2364 47.9328 20.3495 46.3004 18.7294C44.6681 17.1092 42.7669 15.8365 40.6485 14.949C38.4554 14.0253 36.1247 13.5577 33.7259 13.5577C30.2754 13.5577 26.926 14.5407 24.0428 16.4012C23.1935 16.9495 22.3922 17.5686 21.649 18.2519V13.4902H13.4922V23.5865L23.9748 31.8865H32.7106V31.8848Z" fill="white"/>
<path d="M32.3261 31.8867V40.0014H36.5486C35.0103 41.0972 33.1722 41.688 31.2448 41.688C26.2027 41.688 22.0994 37.5985 22.0994 32.5733V31.9956H13.4922V32.5733C13.4922 34.9596 13.9625 37.2767 14.8897 39.4617C15.7839 41.5692 17.0639 43.4605 18.6916 45.0844C20.321 46.7083 22.2186 47.9824 24.3332 48.8752C26.5239 49.7994 28.8504 50.2681 31.2448 50.2681C35.7554 50.2681 40.0988 48.5451 43.3691 45.4986V50.2829H51.5111V40.206L41.0476 31.8884H32.3278L32.3261 31.8867Z" fill="white"/>
</svg>
