<?xml version="1.0" encoding="UTF-8" standalone="no"?>
<svg
   xmlns:dc="http://purl.org/dc/elements/1.1/"
   xmlns:cc="http://creativecommons.org/ns#"
   xmlns:rdf="http://www.w3.org/1999/02/22-rdf-syntax-ns#"
   xmlns:svg="http://www.w3.org/2000/svg"
   xmlns="http://www.w3.org/2000/svg"
   width="67.958893mm"
   height="66.422112mm"
   viewBox="0 0 67.958893 66.422112"
   version="1.1"
   id="svg8">
  <defs
     id="defs2" />
  <metadata
     id="metadata5">
    <rdf:RDF>
      <cc:Work
         rdf:about="">
        <dc:format>image/svg+xml</dc:format>
        <dc:type
           rdf:resource="http://purl.org/dc/dcmitype/StillImage" />
        <dc:title></dc:title>
      </cc:Work>
    </rdf:RDF>
    <rdf:RDF>
      <cc:Work
         rdf:about="">
        <dc:title></dc:title>
      </cc:Work>
    </rdf:RDF>
  </metadata>
  <g
     transform="translate(-12.94759,-13.289701)"
     id="layer2" />
  <g
     transform="translate(-12.94759,-13.289701)"
     id="layer1">
    <path
       d="M 46.884026,13.289708 A 33.97939,33.211013 0 0 0 12.94759,46.500877 33.97939,33.211013 0 0 0 46.927153,79.711816 33.97939,33.211013 0 0 0 80.906484,46.500877 33.97939,33.211013 0 0 0 46.927153,13.289708 a 33.97939,33.211013 0 0 0 -0.04313,0 z m 15.939212,8.268477 c 1.58206,0.0082 2.85937,1.292086 2.851222,2.865829 l -0.05889,11.403963 c -0.0082,1.573742 -1.298838,2.844131 -2.880903,2.83592 -1.582065,-0.0082 -2.859388,-1.291856 -2.851222,-2.865598 l -5.732121,-0.02968 c -1.582074,-0.0082 -2.872737,1.26241 -2.880904,2.836152 l -0.01438,2.791633 h 2.645561 a 2.8539142,2.912251 0 0 1 0.200328,-0.0072 2.8539142,2.912251 0 0 1 2.854009,2.912201 2.8539142,2.912251 0 0 1 -2.854009,2.912204 2.8539142,2.912251 0 0 1 -0.231861,-0.0097 H 37.109599 v -0.0095 a 2.8539142,2.9044336 0 0 1 -0.135409,0.0035 2.8539142,2.9044336 0 0 1 -2.854006,-2.904551 2.8539142,2.9044336 0 0 1 2.854006,-2.90432 2.8539142,2.9044336 0 0 1 0.203808,0.0074 h 2.613331 l 0.02968,-5.701982 c 0.0326,-6.297878 5.192189,-11.377382 11.523373,-11.344606 l 8.598185,0.04452 c 0.0082,-1.573742 1.298605,-2.844344 2.88067,-2.836151 z m -23.076195,27.121975 11.46448,0.05936 -0.04429,8.552973 c -0.03261,6.297771 -5.192189,11.377359 -11.523373,11.344609 l -5.732123,-0.02966 c -0.0081,1.573742 -1.298842,2.844362 -2.880902,2.836151 -1.582069,-0.0082 -2.859389,-1.29209 -2.851223,-2.865831 l 0.05913,-11.403961 c 0.0081,-1.573742 1.298604,-2.844362 2.880669,-2.836151 1.58206,0.0082 2.85962,1.292081 2.851454,2.865827 l 2.866063,0.01485 c 1.582064,0.0082 2.872503,-1.262405 2.880669,-2.836155 z"
       style="fill:#ffffff;stroke-width:0.118714"
       id="path30" />
    <g
       style="font-style:normal;font-weight:normal;font-size:10.5833px;line-height:1.25;font-family:sans-serif;fill:#000000;fill-opacity:1;stroke:none;stroke-width:0.264583"
       id="text62" />
  </g>
</svg>
